<svg xmlns="http://www.w3.org/2000/svg" xmlns:xlink="http://www.w3.org/1999/xlink" viewBox="0,0,256,256" width="150px" height="150px"><g transform="translate(-38.4,-38.4) scale(1.3,1.3)"><g fill="#ffffff" fill-rule="nonzero" stroke="none" stroke-width="1" stroke-linecap="butt" stroke-linejoin="miter" stroke-miterlimit="10" stroke-dasharray="" stroke-dashoffset="0" font-family="none" font-weight="none" font-size="none" text-anchor="none" style="mix-blend-mode: normal"><path d="M29.53846,226.46154v-196.92308h196.92308v196.92308z" id="bgRectangle"></path></g><g fill="#000000" fill-rule="nonzero" stroke="none" stroke-width="1" stroke-linecap="butt" stroke-linejoin="miter" stroke-miterlimit="10" stroke-dasharray="" stroke-dashoffset="0" font-family="none" font-weight="none" font-size="none" text-anchor="none" style="mix-blend-mode: normal"><g transform="scale(5.12,5.12)"><path d="M41,4h-32c-2.76,0 -5,2.24 -5,5v32c0,2.76 2.24,5 5,5h32c2.76,0 5,-2.24 5,-5v-32c0,-2.76 -2.24,-5 -5,-5zM16.06,19.06c0.51,-0.58 1.31,-0.96 2.02,-1.06c0.1,0.77 -0.2,1.55 -0.61,2.03c-0.5,0.58 -1.21,0.97 -2.01,0.97c-0.2,-0.68 0.1,-1.35 0.6,-1.94zM20.39,29.1c-0.6,0.8 -1.41,1.9 -2.31,1.9c-0.91,0 -1.11,-0.6 -2.22,-0.5c-1.21,0 -1.41,0.6 -2.32,0.5c-1,0 -1.71,-0.9 -2.21,-1.8c-1.51,-2.3 -1.71,-5.1 -0.71,-6.6c0.71,-1 1.71,-1.6 2.72,-1.6c1.01,0 1.71,0.6 2.52,0.6c0.81,0 1.31,-0.6 2.52,-0.6c0.91,0 1.81,0.5 2.52,1.3c-2.22,1.2 -1.82,4.3 0.4,5.2c-0.4,0.7 -0.6,1 -0.91,1.6zM29.4,22.38h-2.6v5.22c0,1.2 0.3,1.9 1.4,1.9c0.5,0 0.8,0 1,-0.1l0.1,1.4c-0.3,0.1 -0.9,0.2 -1.6,0.2c-0.8,0 -1.5,-0.3 -2,-0.8c-0.5,-0.6 -0.7,-1.4 -0.7,-2.6v-5.22h-1.5v-1.38h1.5v-2.5l1.8,-0.5v3h2.6zM36.11,31h-1.7l-3.79,-10h1.9l1.99,5.6c0.3,0.9 0.6,1.7 0.8,2.6h0.1c0.2,-0.8 0.5,-1.6 0.8,-2.6l1.9,-5.6h1.89z"></path></g></g><g fill="#000000" fill-rule="nonzero" stroke="none" stroke-width="1" stroke-linecap="butt" stroke-linejoin="miter" stroke-miterlimit="10" stroke-dasharray="" stroke-dashoffset="0" font-family="none" font-weight="none" font-size="none" text-anchor="none" style="mix-blend-mode: normal"><g><path d="M180.156,193.677l5.68,10.96l5.69,-10.96h3.27l-7.53,13.69v8.15h-2.88v-8.15l-7.53,-13.69zM209.016,215.517h-2.9c-0.16667,-0.32 -0.29667,-0.89 -0.39,-1.71v0c-1.29333,1.34 -2.83667,2.01 -4.63,2.01v0c-1.59333,0 -2.90333,-0.45333 -3.93,-1.36c-1.02667,-0.90667 -1.54,-2.05333 -1.54,-3.44v0c0,-1.69333 0.64333,-3.00667 1.93,-3.94c1.28,-0.93333 3.08667,-1.4 5.42,-1.4v0h2.7v-1.28c0,-0.96667 -0.29,-1.73667 -0.87,-2.31c-0.58,-0.58 -1.43333,-0.87 -2.56,-0.87v0c-0.99333,0 -1.82333,0.25 -2.49,0.75c-0.67333,0.5 -1.01,1.10667 -1.01,1.82v0h-2.79c0,-0.81333 0.28667,-1.59667 0.86,-2.35c0.58,-0.75333 1.36,-1.35 2.34,-1.79c0.98667,-0.44 2.07,-0.66 3.25,-0.66v0c1.86667,0 3.33,0.46667 4.39,1.4c1.06,0.93333 1.61,2.22 1.65,3.86v0v7.47c0,1.49333 0.19,2.68 0.57,3.56v0zM201.506,213.407v0c0.87333,0 1.69667,-0.22667 2.47,-0.68c0.78667,-0.45333 1.35333,-1.04 1.7,-1.76v0v-3.33h-2.17c-3.4,0 -5.1,0.99667 -5.1,2.99v0c0,0.86667 0.28667,1.54667 0.86,2.04c0.58,0.49333 1.32667,0.74 2.24,0.74zM213.836,199.287l4.05,12.17l3.78,-12.17h2.97l-6.53,18.74c-1.00667,2.69333 -2.61,4.04 -4.81,4.04v0l-0.53,-0.04l-1.03,-0.2v-2.25l0.75,0.06c0.94,0 1.67333,-0.19 2.2,-0.57c0.52,-0.38 0.95,-1.07333 1.29,-2.08v0l0.62,-1.65l-5.79,-16.05zM230.426,193.677l-0.21,15.67h-2.5l-0.2,-15.67zM227.406,214.117v0c0,-0.44667 0.14,-0.82333 0.42,-1.13c0.27333,-0.30667 0.68,-0.46 1.22,-0.46c0.54,0 0.95,0.15333 1.23,0.46c0.28,0.30667 0.42,0.68333 0.42,1.13c0,0.45333 -0.14,0.82667 -0.42,1.12c-0.28,0.29333 -0.69,0.44 -1.23,0.44c-0.54,0 -0.94667,-0.14667 -1.22,-0.44c-0.28,-0.29333 -0.42,-0.66667 -0.42,-1.12z"></path></g></g></g></svg>